<?xml version="1.0" encoding="UTF-8"?>
<!DOCTYPE svg PUBLIC "-//W3C//DTD SVG 1.1//EN" "http://www.w3.org/Graphics/SVG/1.1/DTD/svg11.dtd">
<!-- Creator: CorelDRAW -->
<svg xmlns="http://www.w3.org/2000/svg" xml:space="preserve" width="30.4mm" height="15.4896mm" version="1.1" style="shape-rendering:geometricPrecision; text-rendering:geometricPrecision; image-rendering:optimizeQuality; fill-rule:evenodd; clip-rule:evenodd"
viewBox="0 0 3040 1548.96"
 xmlns:xlink="http://www.w3.org/1999/xlink"
 xmlns:xodm="http://www.corel.com/coreldraw/odm/2003">
 <defs>
  <style type="text/css">
   <![CDATA[
    .fil1 {fill:#AD1621}
    .fil0 {fill:#DE311E}
   ]]>
  </style>
 </defs>
 <g id="Camada_x0020_1">
  <metadata id="CorelCorpID_0Corel-Layer"/>
  <g id="_2538172013136">
   <path class="fil0" d="M786.74 548.79l250.18 0.75c130.28,-291.29 502.27,-410.54 787.09,-217.86 67.78,45.86 149.04,129.58 184.06,217.46l249.94 0.92c-1.8,-57.21 -74.57,-180.12 -101.92,-217.97 -47.5,-65.75 -95.48,-115.98 -155.38,-164.23 -274.4,-221.06 -684.63,-219.05 -953.76,-1.49 -63.43,51.28 -105.21,95.77 -154.94,164.49 -29.78,41.15 -98.82,157.13 -105.28,217.94z"/>
   <path class="fil1" d="M2233.76 1079.53l-265.96 -1.31c-200.15,297.3 -611.37,323.85 -854.83,50.73 -15.08,-16.92 -22.47,-31.84 -37.34,-47.71l-264.02 -1.78c6.78,45.54 83.7,155.33 108.74,186.18 313.1,385.71 909.24,375.65 1203.57,3.56 25.12,-31.76 104.67,-142.1 109.84,-189.66z"/>
  </g>
 </g>
</svg>
