<?xml version="1.0" encoding="UTF-8"?>
<!DOCTYPE svg PUBLIC "-//W3C//DTD SVG 1.1//EN" "http://www.w3.org/Graphics/SVG/1.1/DTD/svg11.dtd">
<!-- Creator: CorelDRAW -->
<svg xmlns="http://www.w3.org/2000/svg" xml:space="preserve" width="0.9cm" height="0.9cm" version="1.1" style="shape-rendering:geometricPrecision; text-rendering:geometricPrecision; image-rendering:optimizeQuality; fill-rule:evenodd; clip-rule:evenodd"
viewBox="0 0 900 900"
 xmlns:xlink="http://www.w3.org/1999/xlink"
 xmlns:xodm="http://www.corel.com/coreldraw/odm/2003">
 <defs>
  <style type="text/css">
   <![CDATA[
    .fil1 {fill:#8E1616;fill-rule:nonzero}
    .fil0 {fill:#E4ECE9;fill-rule:nonzero}
   ]]>
  </style>
 </defs>
 <g id="Camada_x0020_1">
  <metadata id="CorelCorpID_0Corel-Layer"/>
  <path class="fil0" d="M442.87 6.01l0 0c248.37,0 449.79,201.42 449.79,449.79l0 0c0,248.36 -201.42,449.78 -449.79,449.78l0 0.01c-248.36,-0.01 -449.78,-201.43 -449.78,-449.79l-0.01 0c0.01,-248.37 201.43,-449.79 449.79,-449.79z"/>
  <path class="fil1" d="M591.7 351.62l-342.31 0 0 -44.65c0,-3.95 -1.56,-7.73 -4.36,-10.52 -2.79,-2.79 -6.57,-4.36 -10.52,-4.36 -3.95,0 -7.73,1.57 -10.52,4.36 -2.79,2.79 -4.36,6.57 -4.36,10.52l0 297.66c0,3.95 1.57,7.73 4.36,10.52 2.79,2.79 6.57,4.36 10.52,4.36 3.95,0 7.73,-1.57 10.52,-4.36 2.8,-2.79 4.36,-6.57 4.36,-10.52l0 -59.53 386.96 0 0 59.53c0,3.95 1.57,7.73 4.36,10.52 2.79,2.79 6.57,4.36 10.52,4.36 3.95,0 7.73,-1.57 10.52,-4.36 2.79,-2.79 4.36,-6.57 4.36,-10.52l0 -178.6c0,-19.73 -7.84,-38.66 -21.79,-52.61 -13.96,-13.96 -32.89,-21.8 -52.62,-21.8zm-342.31 29.77l133.95 0 0 133.94 -133.95 0 0 -133.94z"/>
 </g>
</svg>
