<?xml version="1.0" encoding="UTF-8"?>
<!DOCTYPE svg PUBLIC "-//W3C//DTD SVG 1.1//EN" "http://www.w3.org/Graphics/SVG/1.1/DTD/svg11.dtd">
<!-- Creator: CorelDRAW -->
<svg xmlns="http://www.w3.org/2000/svg" xml:space="preserve" width="0.9cm" height="0.9cm" version="1.1" style="shape-rendering:geometricPrecision; text-rendering:geometricPrecision; image-rendering:optimizeQuality; fill-rule:evenodd; clip-rule:evenodd"
viewBox="0 0 900 900"
 xmlns:xlink="http://www.w3.org/1999/xlink"
 xmlns:xodm="http://www.corel.com/coreldraw/odm/2003">
 <defs>
  <style type="text/css">
   <![CDATA[
    .str0 {stroke:#8E1616;stroke-width:52.92;stroke-linecap:round;stroke-linejoin:round;stroke-miterlimit:22.9256}
    .fil0 {fill:none}
   ]]>
  </style>
 </defs>
 <g id="Camada_x0020_1">
  <metadata id="CorelCorpID_0Corel-Layer"/>
  <g id="file.svg">
   <path class="fil0 str0" d="M502.33 258.76l-178.59 0c-10.53,0 -20.62,4.18 -28.07,11.63 -7.44,7.44 -11.62,17.53 -11.62,28.06l0 317.5c0,10.53 4.18,20.62 11.62,28.06 7.45,7.45 17.54,11.63 28.07,11.63l238.12 0c10.53,0 20.62,-4.18 28.07,-11.63 7.44,-7.44 11.62,-17.53 11.62,-28.06l0 -257.97 -99.22 -99.22z"/>
   <path class="fil0 str0" d="M482.49 258.76l0 79.38c0,10.52 4.18,20.62 11.62,28.06 7.44,7.44 17.54,11.62 28.07,11.62l79.37 0"/>
  </g>
 </g>
</svg>
