<?xml version="1.0" encoding="UTF-8"?>
<!DOCTYPE svg PUBLIC "-//W3C//DTD SVG 1.1//EN" "http://www.w3.org/Graphics/SVG/1.1/DTD/svg11.dtd">
<!-- Creator: CorelDRAW -->
<svg xmlns="http://www.w3.org/2000/svg" xml:space="preserve" width="0.9cm" height="0.9cm" version="1.1" style="shape-rendering:geometricPrecision; text-rendering:geometricPrecision; image-rendering:optimizeQuality; fill-rule:evenodd; clip-rule:evenodd"
viewBox="0 0 900 900"
 xmlns:xlink="http://www.w3.org/1999/xlink"
 xmlns:xodm="http://www.corel.com/coreldraw/odm/2003">
 <defs>
  <style type="text/css">
   <![CDATA[
    .fil1 {fill:#8E1616;fill-rule:nonzero}
    .fil0 {fill:#E4ECE9;fill-rule:nonzero}
   ]]>
  </style>
 </defs>
 <g id="Camada_x0020_1">
  <metadata id="CorelCorpID_0Corel-Layer"/>
  <path class="fil0" d="M442.8 7.41l0 0c248.37,0 449.79,201.42 449.79,449.79l0 0c0,248.36 -201.42,449.78 -449.79,449.78l0 0.01c-248.36,-0.01 -449.78,-201.43 -449.78,-449.79l-0.01 0c0.01,-248.37 201.43,-449.79 449.79,-449.79z"/>
  <path class="fil1" d="M606.51 293.49l0 342.3c0,3.95 -1.57,7.73 -4.36,10.53 -2.79,2.79 -6.57,4.36 -10.52,4.36 -3.95,0 -7.74,-1.57 -10.52,-4.36 -2.8,-2.8 -4.36,-6.58 -4.36,-10.53l0 -89.29 -89.3 0c-3.95,0 -7.74,-1.57 -10.52,-4.36 -2.8,-2.79 -4.36,-6.58 -4.36,-10.53 0.69,-35.65 5.19,-71.12 13.43,-105.81 18.19,-75.33 52.68,-125.82 99.77,-145.98 2.26,-0.98 4.73,-1.37 7.18,-1.15 2.45,0.22 4.81,1.04 6.87,2.4 2.06,1.35 3.74,3.2 4.91,5.37 1.17,2.16 1.78,4.59 1.78,7.05zm-178.8 -2.44c-0.29,-1.95 -0.97,-3.83 -1.99,-5.52 -1.03,-1.69 -2.37,-3.16 -3.97,-4.32 -1.6,-1.16 -3.42,-2 -5.34,-2.45 -1.92,-0.45 -3.92,-0.52 -5.87,-0.19 -1.94,0.32 -3.81,1.03 -5.48,2.08 -1.67,1.06 -3.12,2.43 -4.25,4.05 -1.14,1.62 -1.94,3.44 -2.36,5.38 -0.42,1.92 -0.45,3.92 -0.09,5.86l14.47 86.85 -44.44 0 0 -89.3c0,-3.95 -1.57,-7.73 -4.36,-10.53 -2.79,-2.79 -6.58,-4.35 -10.53,-4.35 -3.94,0 -7.73,1.56 -10.52,4.35 -2.79,2.8 -4.36,6.58 -4.36,10.53l0 89.3 -44.44 0 14.47 -86.85c0.36,-1.94 0.33,-3.94 -0.09,-5.86 -0.43,-1.94 -1.23,-3.76 -2.36,-5.38 -1.14,-1.62 -2.58,-2.99 -4.25,-4.05 -1.68,-1.05 -3.54,-1.76 -5.49,-2.08 -1.95,-0.33 -3.94,-0.26 -5.87,0.19 -1.92,0.45 -3.73,1.29 -5.33,2.45 -1.6,1.16 -2.95,2.63 -3.97,4.32 -1.03,1.69 -1.7,3.57 -2,5.52l-14.88 89.3c-0.13,0.8 -0.2,1.62 -0.2,2.44 0.03,21.09 7.51,41.49 21.13,57.6 13.61,16.11 32.49,26.89 53.28,30.43l0 164.97c0,3.95 1.57,7.73 4.36,10.53 2.79,2.79 6.58,4.36 10.52,4.36 3.95,0 7.74,-1.57 10.53,-4.36 2.79,-2.8 4.36,-6.58 4.36,-10.53l0 -164.97c20.79,-3.54 39.66,-14.32 53.28,-30.43 13.62,-16.11 21.1,-36.51 21.13,-57.6 0,-0.82 -0.07,-1.64 -0.2,-2.44l-14.89 -89.3z"/>
 </g>
</svg>
