<?xml version="1.0" encoding="UTF-8"?>
<!DOCTYPE svg PUBLIC "-//W3C//DTD SVG 1.1//EN" "http://www.w3.org/Graphics/SVG/1.1/DTD/svg11.dtd">
<!-- Creator: CorelDRAW -->
<svg xmlns="http://www.w3.org/2000/svg" xml:space="preserve" width="59.618mm" height="30.377mm" version="1.1" style="shape-rendering:geometricPrecision; text-rendering:geometricPrecision; image-rendering:optimizeQuality; fill-rule:evenodd; clip-rule:evenodd"
viewBox="0 0 5961.8 3037.7"
 xmlns:xlink="http://www.w3.org/1999/xlink"
 xmlns:xodm="http://www.corel.com/coreldraw/odm/2003">
 <defs>
  <style type="text/css">
   <![CDATA[
    .fil1 {fill:#AD1621}
    .fil0 {fill:#DE311E}
    .fil2 {fill:#FCFCFA}
   ]]>
  </style>
 </defs>
 <g id="Camada_x0020_1">
  <metadata id="CorelCorpID_0Corel-Layer"/>
  <g id="_2537239479568">
   <path class="fil0" d="M1542.9 1076.25l490.64 1.47c255.49,-571.26 985.02,-805.12 1543.57,-427.25 132.92,89.93 292.28,254.13 360.97,426.46l490.16 1.8c-3.53,-112.19 -146.25,-353.23 -199.88,-427.46 -93.16,-128.95 -187.25,-227.45 -304.71,-322.08 -538.13,-433.52 -1342.65,-429.59 -1870.43,-2.93 -124.39,100.57 -206.32,187.82 -303.85,322.58 -58.4,80.7 -193.8,308.15 -206.47,427.41z"/>
   <path class="fil1" d="M4380.67 2117.08l-521.57 -2.57c-392.51,583.05 -1198.96,635.11 -1676.43,99.48 -29.58,-33.18 -44.06,-62.44 -73.23,-93.57l-517.77 -3.5c13.29,89.31 164.14,304.62 213.26,365.12 614.02,756.42 1783.13,736.69 2360.34,6.99 49.27,-62.28 205.28,-278.67 215.4,-371.95z"/>
   <path class="fil2" d="M5440.68 1448.31l-1.76 -69.88 -163.08 -1.62 -0.87 839.12 165.97 -0.81c14.06,-48.01 5.79,-237.92 5.51,-300.57 36.81,19.53 51.24,59.24 144.2,74.26 67.7,10.94 144.16,-2.82 195.45,-29.51 224.18,-116.65 225.29,-449.99 -5.62,-566.02 -195.69,-98.33 -315.62,49.8 -339.8,55.03zm118.95 68.62c-102.34,35.94 -132.15,128.77 -107.67,213.99 60.89,211.95 388.19,117.57 317.65,-106.67 -24.57,-78.1 -103.78,-144.62 -209.98,-107.32z"/>
   <path class="fil2" d="M3994.89 1368.18c-452.3,74.11 -339.65,679.43 110.16,620.5 430.05,-56.35 337.54,-693.86 -110.16,-620.5zm15.93 143.72c-201.36,44.67 -156.94,374.26 70.85,336.14 79.05,-13.23 146.99,-102.67 129,-203.73 -15.03,-84.41 -99.1,-154.76 -199.85,-132.41z"/>
   <path class="fil2" d="M4750.51 1369.53c-448.3,87.07 -309.98,697.1 130.59,616.34 162.77,-29.84 307.79,-171.7 265.58,-373.5 -32.12,-153.56 -201.71,-280.61 -396.17,-242.84zm13.41 147.34c-101.34,35.64 -134.53,124.76 -107.83,214 22.49,75.16 105.69,148.52 215.17,109.31 193.21,-69.19 100.06,-396.24 -107.34,-323.31z"/>
   <path class="fil2" d="M769.09 1839.4c-35.75,-33.09 -85.9,-71.37 -124.38,-102.84 -39.78,18.43 -115.24,136.61 -284.44,90.14 -323.11,-88.76 -184.08,-587.82 157.27,-478.82 53.78,17.17 84.27,48.79 118.7,84.7l130.26 -101.8c-218.66,-291.22 -769.7,-168.41 -774.3,253.86 -4.46,410.32 537.65,548.53 776.89,254.76z"/>
   <path class="fil2" d="M893.12 1434.53l53.27 115.68c43.22,-11.09 299.06,-145.52 326.1,71.25 -97.57,-4.59 -200.88,-26.09 -292.96,10.21 -246.69,97.26 -82.52,444.58 202.49,346.84 62.89,-21.56 59.61,-44.53 98.12,-64.22 1.85,62.18 -33.44,74.34 165.09,63.9 11.1,-68.37 3.01,-222.84 2.85,-300.29 -0.25,-120.32 -7.37,-170.59 -75.01,-237.33 -115.54,-114.02 -342.8,-87.46 -479.95,-6.04zm382.93 287.76c-43.96,-12.92 -139.78,-16.3 -184.7,-3.43 -137.46,39.42 -34.89,213.61 113.43,138.33 56,-28.42 71.8,-52.76 71.27,-134.9z"/>
   <path class="fil2" d="M2415.88 1620.56c22.61,-126.98 198.96,-144.37 254.92,-46.88 37.43,65.22 9.56,309.22 20.33,403.14 202.09,24.87 170.67,-14.34 170.68,-61.24 0,-122.95 13.75,-307.38 -20.24,-402.52 -64.74,-181.25 -315.57,-195.48 -432.79,-58.43l-0.09 -316.5 -169.82 -1.95 -2.68 840.77 165.66 -1.41c0.29,-67.11 -19.95,-317.48 14.03,-354.98z"/>
   <path class="fil2" d="M1626.78 1797.52c-17.46,27.83 -51.91,83.09 -62.45,120.22 100.14,33.51 135.97,71.71 273.97,73.43 313.11,3.92 347.95,-268.74 174.72,-344.02 -74.53,-32.38 -235.14,-22.66 -257.97,-96.23 20.22,-116.1 227.82,-19.82 279.97,-4.32l58.15 -120.14c-124.76,-49.18 -216.71,-90.43 -368.94,-40.59 -140,45.84 -171.82,187.8 -103.55,272.56 77.65,96.39 289.11,79.06 320.64,129.49 46.67,74.66 -95.65,75.55 -144.64,67.5 -72.72,-11.97 -128.93,-51.89 -169.9,-57.9z"/>
   <path class="fil2" d="M3632.16 1966.65l0.97 -140.88 -415.13 0.02 -0.31 -631.88c-53.95,-14.93 -120.43,-5.88 -177.34,-5.21l-0.59 784.01c92.94,3.08 528.34,11.66 592.4,-6.06z"/>
  </g>
 </g>
</svg>
