<?xml version="1.0" encoding="UTF-8"?>
<!DOCTYPE svg PUBLIC "-//W3C//DTD SVG 1.1//EN" "http://www.w3.org/Graphics/SVG/1.1/DTD/svg11.dtd">
<!-- Creator: CorelDRAW -->
<svg xmlns="http://www.w3.org/2000/svg" xml:space="preserve" width="0.9cm" height="0.9cm" version="1.1" style="shape-rendering:geometricPrecision; text-rendering:geometricPrecision; image-rendering:optimizeQuality; fill-rule:evenodd; clip-rule:evenodd"
viewBox="0 0 900 900"
 xmlns:xlink="http://www.w3.org/1999/xlink"
 xmlns:xodm="http://www.corel.com/coreldraw/odm/2003">
 <defs>
  <style type="text/css">
   <![CDATA[
    .str0 {stroke:#1F8459;stroke-width:211.67;stroke-linecap:round;stroke-linejoin:round;stroke-miterlimit:22.9256;stroke-opacity:0.800000}
    .str1 {stroke:#1F8459;stroke-width:211.67;stroke-linecap:round;stroke-linejoin:round;stroke-miterlimit:22.9256}
    .fil1 {fill:none}
    .fil0 {fill:none}
    .fil3 {fill:#8E1616;fill-rule:nonzero}
    .fil2 {fill:#E4ECE9;fill-rule:nonzero}
   ]]>
  </style>
 </defs>
 <g id="Camada_x0020_1">
  <metadata id="CorelCorpID_0Corel-Layer"/>
  <g id="_2537743740192">
   <path class="fil0 str0" d="M-1002.81 -1345.46c55.4,271.79 15.92,554.36 -111.82,800.58 -127.74,246.22 -336.03,441.2 -590.13,552.44 -254.1,111.22 -538.66,131.99 -806.21,58.82 -267.56,-73.18 -501.94,-235.87 -664.06,-460.93 -162.13,-225.07 -242.19,-498.92 -226.85,-775.88 15.35,-276.95 125.17,-540.28 311.17,-746.06 186,-205.78 436.92,-341.58 710.92,-384.75 274,-43.17 554.52,8.9 794.78,147.53"/>
   <polyline class="fil1 str1" points="-2555.15,-1224.2 -2191.35,-860.4 -978.69,-2073.07 "/>
  </g>
  <path class="fil2" d="M442.8 7.41l0 0c248.37,0 449.79,201.42 449.79,449.79l0 0c0,248.36 -201.42,449.78 -449.79,449.78l0 0.01c-248.36,-0.01 -449.78,-201.43 -449.78,-449.79l-0.01 0c0.01,-248.37 201.43,-449.79 449.79,-449.79z"/>
  <path class="fil3" d="M606.51 293.49l-327.42 0c-7.9,0 -15.47,3.13 -21.05,8.72 -5.58,5.58 -8.72,13.15 -8.72,21.04l0 282.78c0,2.54 0.65,5.03 1.89,7.25 1.24,2.21 3.02,4.07 5.18,5.4 2.16,1.34 4.62,2.1 7.15,2.21 2.54,0.11 5.06,-0.43 7.33,-1.56l52.87 -26.44 52.87 26.44c2.07,1.03 4.35,1.57 6.66,1.57 2.31,0 4.59,-0.54 6.66,-1.57l52.87 -26.44 52.87 26.44c2.07,1.03 4.35,1.57 6.66,1.57 2.31,0 4.59,-0.54 6.66,-1.57l52.87 -26.44 52.87 26.44c2.27,1.13 4.79,1.67 7.33,1.56 2.53,-0.11 4.99,-0.87 7.15,-2.21 2.16,-1.33 3.94,-3.19 5.18,-5.4 1.24,-2.22 1.88,-4.71 1.89,-7.25l0 -282.78c0,-7.89 -3.14,-15.46 -8.72,-21.04 -5.58,-5.59 -13.15,-8.72 -21.05,-8.72zm-74.41 193.48l-178.6 0c-3.94,0 -7.73,-1.57 -10.52,-4.36 -2.79,-2.79 -4.36,-6.58 -4.36,-10.53 0,-3.94 1.57,-7.73 4.36,-10.52 2.79,-2.79 6.58,-4.36 10.52,-4.36l178.6 0c3.94,0 7.73,1.57 10.52,4.36 2.79,2.79 4.36,6.58 4.36,10.52 0,3.95 -1.57,7.74 -4.36,10.53 -2.79,2.79 -6.58,4.36 -10.52,4.36zm0 -59.54l-178.6 0c-3.94,0 -7.73,-1.56 -10.52,-4.36 -2.79,-2.78 -4.36,-6.57 -4.36,-10.52 0,-3.95 1.57,-7.73 4.36,-10.52 2.79,-2.79 6.58,-4.36 10.52,-4.36l178.6 0c3.94,0 7.73,1.57 10.52,4.36 2.79,2.79 4.36,6.57 4.36,10.52 0,3.95 -1.57,7.74 -4.36,10.52 -2.79,2.8 -6.58,4.36 -10.52,4.36z"/>
 </g>
</svg>
