<?xml version="1.0" encoding="UTF-8"?>
<!DOCTYPE svg PUBLIC "-//W3C//DTD SVG 1.1//EN" "http://www.w3.org/Graphics/SVG/1.1/DTD/svg11.dtd">
<!-- Creator: CorelDRAW -->
<svg xmlns="http://www.w3.org/2000/svg" xml:space="preserve" width="0.9cm" height="0.9cm" version="1.1" style="shape-rendering:geometricPrecision; text-rendering:geometricPrecision; image-rendering:optimizeQuality; fill-rule:evenodd; clip-rule:evenodd"
viewBox="0 0 900 900"
 xmlns:xlink="http://www.w3.org/1999/xlink"
 xmlns:xodm="http://www.corel.com/coreldraw/odm/2003">
 <defs>
  <style type="text/css">
   <![CDATA[
    .fil1 {fill:#8E1616;fill-rule:nonzero}
    .fil0 {fill:#E4ECE9;fill-rule:nonzero}
   ]]>
  </style>
 </defs>
 <g id="Camada_x0020_1">
  <metadata id="CorelCorpID_0Corel-Layer"/>
  <path class="fil0" d="M442.8 7.41l0 0c248.37,0 449.79,201.42 449.79,449.79l0 0c0,248.36 -201.42,449.78 -449.79,449.78l0 0.01c-248.36,-0.01 -449.78,-201.43 -449.78,-449.79l-0.01 0c0.01,-248.37 201.43,-449.79 449.79,-449.79z"/>
  <path class="fil1" d="M636.28 397.67c0.02,22.27 -5.52,44.21 -16.11,63.8 -10.58,19.6 -25.89,36.25 -44.54,48.44 -18.64,12.19 -40.03,19.54 -62.23,21.38 -22.2,1.84 -44.51,-1.89 -64.91,-10.84l-96.85 112.03c-0.22,0.26 -0.48,0.54 -0.72,0.78 -11.17,11.17 -26.31,17.44 -42.11,17.44 -15.79,0 -30.93,-6.27 -42.09,-17.44 -11.17,-11.16 -17.44,-26.31 -17.44,-42.1 0,-15.79 6.27,-30.93 17.44,-42.1 0.26,-0.24 0.52,-0.5 0.8,-0.72l112.03 -96.83c-10.04,-22.96 -13.44,-48.28 -9.82,-73.07 3.62,-24.8 14.11,-48.08 30.29,-67.22 16.18,-19.13 37.4,-33.35 61.26,-41.03 23.85,-7.69 49.37,-8.53 73.68,-2.45 2.51,0.63 4.8,1.9 6.67,3.68 1.87,1.79 3.24,4.03 3.98,6.51 0.73,2.47 0.81,5.1 0.23,7.62 -0.59,2.51 -1.82,4.83 -3.57,6.73l-69.7 75.62 10.52 49.02 49.01 10.51 75.62 -69.8c1.9,-1.75 4.22,-2.98 6.73,-3.56 2.52,-0.59 5.14,-0.51 7.62,0.23 2.47,0.74 4.72,2.11 6.5,3.97 1.79,1.87 3.06,4.17 3.69,6.68 2.67,10.7 4.02,21.69 4.02,32.72z"/>
 </g>
</svg>
