<?xml version="1.0" encoding="UTF-8"?>
<!DOCTYPE svg PUBLIC "-//W3C//DTD SVG 1.1//EN" "http://www.w3.org/Graphics/SVG/1.1/DTD/svg11.dtd">
<!-- Creator: CorelDRAW -->
<svg xmlns="http://www.w3.org/2000/svg" xml:space="preserve" width="0.9cm" height="0.9cm" version="1.1" style="shape-rendering:geometricPrecision; text-rendering:geometricPrecision; image-rendering:optimizeQuality; fill-rule:evenodd; clip-rule:evenodd"
viewBox="0 0 900 900"
 xmlns:xlink="http://www.w3.org/1999/xlink"
 xmlns:xodm="http://www.corel.com/coreldraw/odm/2003">
 <defs>
  <style type="text/css">
   <![CDATA[
    .fil1 {fill:#8E1616;fill-rule:nonzero}
    .fil0 {fill:#E4ECE9;fill-rule:nonzero}
   ]]>
  </style>
 </defs>
 <g id="Camada_x0020_1">
  <metadata id="CorelCorpID_0Corel-Layer"/>
  <path class="fil0" d="M442.8 7.41l0 0c248.37,0 449.79,201.42 449.79,449.79l0 0c0,248.36 -201.42,449.78 -449.79,449.78l0 0.01c-248.36,-0.01 -449.78,-201.43 -449.78,-449.79l-0.01 0c0.01,-248.37 201.43,-449.79 449.79,-449.79z"/>
  <path class="fil1" d="M383.27 278.61c0,-3.95 1.57,-7.74 4.36,-10.53 2.79,-2.79 6.57,-4.36 10.52,-4.36l89.3 0c3.95,0 7.73,1.57 10.52,4.36 2.79,2.79 4.36,6.58 4.36,10.53 0,3.94 -1.57,7.73 -4.36,10.52 -2.79,2.79 -6.57,4.36 -10.52,4.36l-89.3 0c-3.95,0 -7.73,-1.57 -10.52,-4.36 -2.79,-2.79 -4.36,-6.58 -4.36,-10.52zm282.77 163.71c0,3.94 -1.57,7.73 -4.36,10.52 -2.79,2.79 -6.57,4.36 -10.52,4.36l-14.88 0 0 148.83c0,7.89 -3.14,15.46 -8.72,21.05 -5.58,5.58 -13.15,8.71 -21.05,8.71l-44.65 0c-7.89,0 -15.46,-3.13 -21.05,-8.71 -5.58,-5.59 -8.71,-13.16 -8.71,-21.05l0 -29.77 -178.6 0 0 29.77c0,7.89 -3.13,15.46 -8.71,21.05 -5.59,5.58 -13.16,8.71 -21.05,8.71l-44.65 0c-7.9,0 -15.47,-3.13 -21.05,-8.71 -5.58,-5.59 -8.72,-13.16 -8.72,-21.05l0 -148.83 -14.88 0c-3.95,0 -7.73,-1.57 -10.52,-4.36 -2.79,-2.79 -4.36,-6.58 -4.36,-10.52 0,-3.95 1.57,-7.74 4.36,-10.53 2.79,-2.79 6.57,-4.36 10.52,-4.36l21.13 0 50.96 -89.18c2.6,-4.55 6.36,-8.34 10.9,-10.97 4.54,-2.64 9.69,-4.03 14.94,-4.03l220.86 0c5.25,0 10.4,1.39 14.94,4.03 4.54,2.63 8.3,6.42 10.9,10.97l50.96 89.18 21.13 0c3.95,0 7.73,1.57 10.52,4.36 2.79,2.79 4.36,6.58 4.36,10.53zm-297.65 59.53c0,-3.95 -1.57,-7.74 -4.36,-10.52 -2.79,-2.8 -6.58,-4.36 -10.53,-4.36l-29.76 0c-3.95,0 -7.74,1.56 -10.52,4.36 -2.8,2.78 -4.37,6.57 -4.37,10.52 0,3.95 1.57,7.73 4.37,10.52 2.78,2.79 6.57,4.36 10.52,4.36l29.76 0c3.95,0 7.74,-1.57 10.53,-4.36 2.79,-2.79 4.36,-6.57 4.36,-10.52zm208.36 0c0,-3.95 -1.57,-7.74 -4.37,-10.52 -2.78,-2.8 -6.57,-4.36 -10.52,-4.36l-29.76 0c-3.95,0 -7.74,1.56 -10.53,4.36 -2.79,2.78 -4.36,6.57 -4.36,10.52 0,3.95 1.57,7.73 4.36,10.52 2.79,2.79 6.58,4.36 10.53,4.36l29.76 0c3.95,0 7.74,-1.57 10.52,-4.36 2.8,-2.79 4.37,-6.57 4.37,-10.52z"/>
 </g>
</svg>
